<svg aria-hidden="true" style="width:0;height:0;position:absolute;overflow:hidden" xmlns="http://www.w3.org/2000/svg"><defs><symbol id="icon-booking" viewBox="0 0 34 32"><path fill="#fff" style="fill:var(--color1,#fff)" d="M15.795 0h2.872v2.872h-2.872V0zM24.41 0h2.872v2.872H24.41V0zM7.179 0h2.872v2.872H7.179V0zM33.026 2.872h-5.744V7.18H24.41V2.872h-5.744V7.18h-2.872V2.872H10.05V7.18H7.178V2.872H1.434A1.44 1.44 0 0 0-.002 4.308v25.846a1.44 1.44 0 0 0 1.436 1.436h31.59a1.438 1.438 0 0 0 1.436-1.436V4.308a1.44 1.44 0 0 0-1.436-1.436zm-6.578 18.399-2.037-1.456v6.031a1.438 1.438 0 0 1-1.436 1.436h-3.59v-5.744a1.44 1.44 0 0 0-1.436-1.436h-1.436a1.44 1.44 0 0 0-1.436 1.436v5.744h-3.59a1.438 1.438 0 0 1-1.436-1.436v-6.031l-2.037 1.456-1.669-2.337 10.051-7.179a1.458 1.458 0 0 1 1.67 0l10.051 7.179-1.669 2.337z"/></symbol><symbol id="icon-scroll" viewBox="0 0 32 32"><path fill="#fff" style="fill:var(--color1,#fff)" d="M16.085 32A16.006 16.006 0 0 1 1.941 8.533a16.004 16.004 0 0 1 7.916-7.274A16.006 16.006 0 0 1 30.62 9.858a16.008 16.008 0 0 1-8.308 20.882 15.899 15.899 0 0 1-6.228 1.259zM9.673 10.888l-2.632 2.571 8.834 8.627 8.835-8.63-2.632-2.57-6.203 6.059-6.202-6.056z"/></symbol></defs></svg>