<svg aria-hidden="true" style="position: absolute; width: 0; height: 0; overflow: hidden;" version="1.1" xmlns="http://www.w3.org/2000/svg" xmlns:xlink="http://www.w3.org/1999/xlink">
<defs>
<symbol id="icon-booking" viewBox="0 0 34 32">
<path fill="#fff" style="fill: var(--color1, #fff)" d="M15.795 0h2.872v2.872h-2.872v-2.872z"></path>
<path fill="#fff" style="fill: var(--color1, #fff)" d="M24.41 0h2.872v2.872h-2.872v-2.872z"></path>
<path fill="#fff" style="fill: var(--color1, #fff)" d="M7.179 0h2.872v2.872h-2.872v-2.872z"></path>
<path fill="#fff" style="fill: var(--color1, #fff)" d="M33.026 2.872h-5.744v4.308h-2.872v-4.308h-5.744v4.308h-2.872v-4.308h-5.744v4.308h-2.872v-4.308h-5.744c-0.381 0-0.746 0.151-1.015 0.421s-0.421 0.635-0.421 1.015v25.846c0 0.381 0.151 0.746 0.421 1.015s0.635 0.421 1.015 0.421h31.59c0.381 0 0.746-0.151 1.015-0.421s0.421-0.634 0.421-1.015v-25.846c0-0.381-0.151-0.746-0.421-1.015s-0.635-0.421-1.015-0.421zM26.448 21.271l-2.037-1.456v6.031c0 0.381-0.151 0.746-0.421 1.015s-0.634 0.421-1.015 0.421h-3.59v-5.744c0-0.381-0.151-0.746-0.421-1.015s-0.635-0.421-1.015-0.421h-1.436c-0.381 0-0.746 0.151-1.015 0.421s-0.421 0.635-0.421 1.015v5.744h-3.59c-0.381 0-0.746-0.151-1.015-0.421s-0.421-0.634-0.421-1.015v-6.031l-2.037 1.456-1.669-2.337 10.051-7.179c0.245-0.171 0.536-0.263 0.835-0.263s0.59 0.092 0.835 0.263l10.051 7.179-1.669 2.337z"></path>
</symbol>
<symbol id="icon-scroll" viewBox="0 0 32 32">
<path fill="#fff" style="fill: var(--color1, #fff)" d="M16.085 32c-3.691-0.003-7.267-1.282-10.123-3.619s-4.816-5.59-5.549-9.207-0.193-7.376 1.528-10.641c1.721-3.265 4.517-5.834 7.916-7.274 3.897-1.582 8.26-1.567 12.145 0.042s6.981 4.683 8.618 8.557c1.637 3.874 1.683 8.237 0.128 12.144s-4.585 7.047-8.436 8.738c-1.97 0.834-4.088 1.263-6.228 1.259zM9.673 10.888l-2.632 2.571 8.834 8.627 8.835-8.63-2.632-2.57-6.203 6.059-6.202-6.056z"></path>
</symbol>
</defs>
</svg>
